<?xml version="1.0" encoding="UTF-8" standalone="no"?>
<svg
   viewBox="0 0 546.13397 384"
   version="1.1"
   id="svg4"
   sodipodi:docname="youtube.svg"
   width="546.13397"
   height="384"
   inkscape:version="1.2 (dc2aedaf03, 2022-05-15)"
   xmlns:inkscape="http://www.inkscape.org/namespaces/inkscape"
   xmlns:sodipodi="http://sodipodi.sourceforge.net/DTD/sodipodi-0.dtd"
   xmlns="http://www.w3.org/2000/svg"
   xmlns:svg="http://www.w3.org/2000/svg">
  <defs
     id="defs8" />
  <sodipodi:namedview
     id="namedview6"
     pagecolor="#ffffff"
     bordercolor="#666666"
     borderopacity="1.0"
     inkscape:showpageshadow="2"
     inkscape:pageopacity="0.0"
     inkscape:pagecheckerboard="0"
     inkscape:deskcolor="#d1d1d1"
     showgrid="false"
     inkscape:zoom="0.4609375"
     inkscape:cx="273.35593"
     inkscape:cy="711.59322"
     inkscape:window-width="1920"
     inkscape:window-height="1017"
     inkscape:window-x="-8"
     inkscape:window-y="-8"
     inkscape:window-maximized="1"
     inkscape:current-layer="svg4" />
  <path
     d="M 534.722,60.083 C 528.441,36.433 509.935,17.807 486.438,11.486 443.848,0 273.067,0 273.067,0 273.067,0 102.287,0 59.696,11.486 36.199,17.808 17.693,36.433 11.412,60.083 0,102.95 0,192.388 0,192.388 c 0,0 0,89.438 11.412,132.305 6.281,23.65 24.787,41.5 48.284,47.821 C 102.287,384 273.067,384 273.067,384 c 0,0 170.78,0 213.371,-11.486 23.497,-6.321 42.003,-24.171 48.284,-47.821 11.412,-42.867 11.412,-132.305 11.412,-132.305 0,0 0,-89.438 -11.412,-132.305 z M 217.212,273.591 V 111.185 l 142.739,81.205 z"
     id="path2" />
</svg>
